# xmcd
#
# Track frame offsets: 
#        150
#        15629
#        33430
#        50491
#        67019
#        82451
#        97923
#        112367
#        127381
#        145806
#        165122
#        181893
#
# Disc length: 2667 seconds
#
# Revision: 0
# Processed by: cddbd v1.5.2PL0 Copyright (c) Steve Scherf et al.
# Submitted via: ExactAudioCopy v0.95b3
#
DISCID=ab0a690c
DTITLE=Jimmy Wayne - Do you believe me
DYEAR=2008
DGENRE=Country
TTITLE0=Do you believe me now
TTITLE1=I will
TTITLE2=I'll be that
TTITLE3=Brighter days
TTITLE4=One on one
TTITLE5=kerosene kid
TTITLE6=No good for me
TTITLE7=True believer
TTITLE8=I didn't come here to lose
TTITLE9=Where you're going
TTITLE10=Stay gone
TTITLE11=I love you this much
EXTD=
EXTT0=
EXTT1=
EXTT2=
EXTT3=
EXTT4=
EXTT5=
EXTT6=
EXTT7=
EXTT8=
EXTT9=
EXTT10=
EXTT11=
PLAYORDER=
